<?xml version="1.0" encoding="UTF-8"?>
<svg version="1.1" xmlns="http://www.w3.org/2000/svg" width="512" height="512">
<path d="M0 0 C2.52343717 2.12626919 3.71306787 4.1956176 4.96118164 7.22436523 C5.3148732 8.07212021 5.66856476 8.91987518 6.03297424 9.7933197 C6.59092934 11.16213036 6.59092934 11.16213036 7.16015625 12.55859375 C7.55069687 13.49929214 7.94123749 14.43999054 8.34361267 15.40919495 C9.59026996 18.4157785 10.82669494 21.42644162 12.0625 24.4375 C13.30393288 27.44409901 14.54744186 30.44982782 15.792099 33.45509338 C16.56572518 35.32500914 17.33709994 37.19585831 18.10597229 39.06773376 C18.45651169 39.9186409 18.80705109 40.76954803 19.16821289 41.64624023 C19.47449112 42.39219955 19.78076935 43.13815887 20.09632874 43.90672302 C20.99146496 45.98022931 21.97015161 47.99047091 23 50 C23.81339844 49.49210937 24.62679687 48.98421875 25.46484375 48.4609375 C34.5858104 42.92026438 43.77874256 39.03755373 54 36 C55.12019531 35.65839844 56.24039063 35.31679688 57.39453125 34.96484375 C88.50082556 27.17921712 117.52998133 35.78893771 145 50 C145.08773682 49.36263916 145.17547363 48.72527832 145.26586914 48.06860352 C146.28713757 43.79978978 148.01254707 39.92621518 149.74609375 35.90234375 C150.11726822 35.03106339 150.48844269 34.15978302 150.87086487 33.26210022 C151.65461163 31.42468091 152.44062727 29.58822794 153.22875977 27.75268555 C154.43391891 24.94584046 155.63261717 22.13630864 156.83007812 19.32617188 C157.59337606 17.53890276 158.35703576 15.75178808 159.12109375 13.96484375 C159.47948837 13.12622299 159.837883 12.28760223 160.20713806 11.42356873 C160.54411209 10.63917923 160.88108612 9.85478973 161.22827148 9.04663086 C161.52281723 8.35999863 161.81736298 7.67336639 162.12083435 6.96592712 C164.72798297 1.13600852 164.72798297 1.13600852 167 0 C173.40601446 -0.47653807 177.78212143 0.70274854 183.60546875 3.26953125 C184.42553909 3.61710983 185.24560944 3.96468842 186.0905304 4.32279968 C188.79537893 5.47281725 191.49116817 6.64267042 194.1875 7.8125 C196.10485701 8.63164172 198.02283855 9.44932296 199.94140625 10.265625 C203.95269154 11.97440492 207.96068399 13.69059132 211.96630859 15.41259766 C220.53163564 19.09136528 229.12378138 22.70634213 237.7144165 26.32550049 C240.50167748 27.50070729 243.28787522 28.6783987 246.07373047 29.85693359 C255.74408556 33.9471006 265.42218173 38.01780088 275.11328125 42.05859375 C276.10097504 42.47070099 277.08866882 42.88280823 278.10629272 43.30740356 C282.83499922 45.28015416 287.56487013 47.25001816 292.296875 49.21484375 C293.99613974 49.92306674 295.69536086 50.63139442 297.39453125 51.33984375 C298.15083328 51.65255722 298.90713531 51.96527069 299.68635559 52.28746033 C301.10653022 52.88082663 302.52220829 53.48510312 303.93252563 54.10153198 C305.35638657 54.72030314 306.79387412 55.30832823 308.24105835 55.87039185 C312.10843329 57.51021534 313.66522697 58.37637689 315.70678711 62.17944336 C316.09677006 67.26091141 314.73839218 70.54091456 312.69140625 75.12890625 C312.32422989 75.9965712 311.95705353 76.86423615 311.57875061 77.75819397 C310.40631239 80.51478908 309.20493404 83.25747471 308 86 C307.23929007 87.7635429 306.47999156 89.52769534 305.72216797 91.29248047 C303.0851315 97.41455642 300.44012491 103.53338054 297.74829102 109.6315918 C296.60004065 112.23759205 295.46859626 114.85035093 294.33984375 117.46484375 C293.98792465 118.25124741 293.63600555 119.03765106 293.27342224 119.84788513 C291.89847707 123.06402755 290.97828864 125.34058057 291.09448242 128.86962891 C292.13326989 131.31353817 292.94854067 132.16669399 295.1484375 133.62109375 C296.14858887 134.30171875 296.14858887 134.30171875 297.16894531 134.99609375 C297.89694336 135.47175781 298.62494141 135.94742188 299.375 136.4375 C300.92071107 137.48616149 302.46492381 138.53703412 304.0078125 139.58984375 C305.22645996 140.41524658 305.22645996 140.41524658 306.46972656 141.25732422 C310.80133583 144.24063442 315.02354962 147.37031803 319.25 150.5 C320.04712402 151.0870874 320.84424805 151.6741748 321.66552734 152.27905273 C323.78389212 153.84374885 325.89366049 155.4191718 328 157 C328.98484375 157.73476562 329.9696875 158.46953125 330.984375 159.2265625 C333 161 333 161 334 163.875 C334 170.82894915 328.69571306 176.35766882 324.6875 181.6875 C323.42178238 183.3879519 322.15616004 185.08847472 320.890625 186.7890625 C320.24416016 187.6543457 319.59769531 188.51962891 318.93164062 189.41113281 C315.91802002 193.45011574 312.92680118 197.50550124 309.9375 201.5625 C309.35830811 202.34778076 308.77911621 203.13306152 308.18237305 203.94213867 C304.25652717 209.2721472 300.3682971 214.62811622 296.5 220 C291.9508349 226.31708709 287.3676978 232.60781354 282.75 238.875 C282.16516846 239.6690625 281.58033691 240.463125 280.9777832 241.28125 C278.38922857 244.788868 275.79101691 248.28769951 273.15234375 251.7578125 C272.73049805 252.31355957 272.30865234 252.86930664 271.87402344 253.44189453 C270.77811615 254.8810057 269.67642417 256.31570681 268.57421875 257.75 C266.84258778 259.99765856 266.84258778 259.99765856 266 263 C267.25103516 263.14115234 267.25103516 263.14115234 268.52734375 263.28515625 C272.53536859 264.11020523 275.93795598 265.60538077 279.5625 267.4375 C280.26068848 267.79021973 280.95887695 268.14293945 281.67822266 268.50634766 C304.98671615 280.69889067 321.73119082 302.00477855 329.8125 326.875 C332.86744263 336.82448365 336.12143929 350.15067463 333.375 360.3125 C332 362 332 362 326 364 C326 372.25 326 380.5 326 389 C327.65 389.33 329.3 389.66 331 390 C333.74681106 393.41634904 334.37525902 396.07286408 334.37231445 400.39428711 C334.37854324 401.44986313 334.38477203 402.50543915 334.39118958 403.59300232 C334.37737495 405.29300133 334.37737495 405.29300133 334.36328125 407.02734375 C334.36377975 408.20784805 334.36427826 409.38835236 334.36479187 410.60462952 C334.36245211 413.10533325 334.35272947 415.60603937 334.33618164 418.10668945 C334.31277936 421.89231023 334.31559853 425.67721678 334.32226562 429.46289062 C334.28929973 461.08725574 334.28929973 461.08725574 328.625 471.5625 C328.03976562 472.67753906 327.45453125 473.79257812 326.8515625 474.94140625 C325 478 325 478 322.7578125 480.62890625 C320.82529996 482.7981991 320.82529996 482.7981991 320.828125 485.1484375 C320.96734375 485.88320313 321.1065625 486.61796875 321.25 487.375 C321.90182693 491.88346957 322.19479856 496.32308928 322.25 500.875 C322.27578125 502.13054687 322.3015625 503.38609375 322.328125 504.6796875 C321.97894912 508.21301484 321.63122721 509.64237385 319 512 C316.84375 512.49609375 316.84375 512.49609375 314.5 512.4375 C313.7265625 512.43621094 312.953125 512.43492187 312.15625 512.43359375 C309.4881943 511.89708255 308.56537336 511.21259504 307 509 C307 507.68 307 506.36 307 505 C259.81 505 212.62 505 164 505 C163.67 506.65 163.34 508.3 163 510 C160.58513057 512.41486943 159.87292211 512.2961925 156.5625 512.3125 C155.78003906 512.32925781 154.99757813 512.34601562 154.19140625 512.36328125 C152 512 152 512 150.21484375 510.73046875 C149 509 149 509 149 505 C101.81 505 54.62 505 6 505 C5.67 506.65 5.34 508.3 5 510 C3 512 3 512 -0.875 512.375 C-4.02727367 512.30049171 -4.84388675 512.11318211 -7.5 510.1875 C-9 508 -9 508 -9 505 C-27.46282979 505.01379569 -45.92538565 505.05597264 -64.38806629 505.13209057 C-72.96031868 505.16676795 -81.53240981 505.19209967 -90.10473633 505.19555664 C-97.57497514 505.19859274 -105.04492697 505.2190351 -112.51505488 505.26052457 C-116.47181622 505.28188889 -120.4281692 505.29443785 -124.38498878 505.28615379 C-128.10754348 505.27863494 -131.82926933 505.29434617 -135.55167198 505.32806015 C-137.57282769 505.34026554 -139.59408516 505.32767511 -141.61523438 505.31443787 C-142.81416824 505.32972534 -144.01310211 505.34501282 -145.24836731 505.36076355 C-146.81495449 505.36491162 -146.81495449 505.36491162 -148.41318989 505.36914349 C-151.23500848 505.76163119 -151.23500848 505.76163119 -152.79697704 508.47745228 C-153.39247341 509.7261134 -153.39247341 509.7261134 -154 511 C-155.8503199 512.8503199 -158.42472082 512.29140132 -160.89453125 512.42578125 C-163.99394187 511.79899877 -165.11778598 510.49851419 -167 508 C-170.26754371 490.17001738 -161.79005708 469.47152626 -152.22900391 454.74511719 C-145.94695655 445.82495935 -137.761187 438.41582499 -129 432 C-132.91379395 427.3948582 -132.91379395 427.3948582 -136.93359375 422.8828125 C-141.10121109 418.31711865 -144.75079387 413.64257904 -148.21875 408.52734375 C-150.03537861 405.94980272 -151.98362329 403.54852969 -154 401.125 C-166.22069383 385.97323067 -172.96862351 367.40863036 -174 348 C-174.05285156 347.20980469 -174.10570312 346.41960937 -174.16015625 345.60546875 C-175.05858469 320.17603781 -165.22974208 296.80138523 -148.3828125 278.09375 C-137.5154072 266.50062306 -122.1191776 255.11084469 -106 253 C-112.61698681 243.79643338 -119.262931 234.61613787 -126 225.5 C-131.07771308 218.62887291 -136.10221843 211.72209324 -141.09228516 204.78710938 C-144.54398694 199.99699262 -148.02911086 195.23306934 -151.53857422 190.48510742 C-153.32145036 188.07246501 -155.09873466 185.65579305 -156.875 183.23828125 C-158.71016897 180.74132923 -160.5589313 178.25738801 -162.4375 175.79296875 C-163.076875 174.93316406 -163.71625 174.07335937 -164.375 173.1875 C-164.89835938 172.50042969 -165.42171875 171.81335938 -165.9609375 171.10546875 C-167.41068041 168.1678318 -167.43953552 166.23846456 -167 163 C-164.08779613 158.12605045 -159.51076703 155.25047912 -154.9375 152.0625 C-153.32992799 150.92430782 -151.72318632 149.78494215 -150.1171875 148.64453125 C-148.86566895 147.75822021 -148.86566895 147.75822021 -147.58886719 146.85400391 C-142.37083018 143.11713357 -137.23950374 139.25994882 -132.10717773 135.40649414 C-131.35122314 134.84438232 -130.59526855 134.28227051 -129.81640625 133.703125 C-129.15068604 133.20458008 -128.48496582 132.70603516 -127.79907227 132.19238281 C-126 131 -126 131 -123 130 C-125.41672182 124.22392654 -127.83372937 118.44797275 -130.25097656 112.67211914 C-131.06941021 110.71642106 -131.88777222 108.76069299 -132.70605469 106.80493164 C-133.50098034 104.90502026 -134.29614637 103.00520944 -135.09155273 101.10549927 C-135.88536978 99.20800693 -136.67784833 97.30995408 -137.46899414 95.41134644 C-139.40348962 90.77571136 -141.36154964 86.15346707 -143.37890625 81.55322266 C-143.75237183 80.6930806 -144.1258374 79.83293854 -144.51062012 78.94673157 C-145.21100467 77.33681601 -145.91984471 75.73054111 -146.63879395 74.12882996 C-148.42443463 70.00237529 -149.86058361 66.56005337 -149 62 C-145.52076932 57.42629818 -141.43910587 55.51995436 -136.2734375 53.42578125 C-135.51037796 53.10478455 -134.74731842 52.78378784 -133.96113586 52.45306396 C-131.43711615 51.39455766 -128.90623281 50.35362563 -126.375 49.3125 C-124.58000682 48.56356371 -122.78550068 47.8134592 -120.99145508 47.06225586 C-117.22797219 45.48867134 -113.46165653 43.92216942 -109.69287109 42.36132812 C-104.22235014 40.09480472 -98.76035531 37.80837134 -93.30078125 35.515625 C-86.19902427 32.53457654 -79.09516934 29.55864021 -71.98828125 26.58984375 C-71.0988382 26.21828659 -70.20939514 25.84672943 -69.29299927 25.46391296 C-67.46831471 24.70172226 -65.6436177 23.93956137 -63.81890869 23.1774292 C-55.95266985 19.89178205 -48.08707416 16.60459989 -40.22232056 13.31539917 C-37.4463329 12.15482264 -34.66983842 10.99546506 -31.89331055 9.83618164 C-30.18666161 9.1226174 -28.48003603 8.40899728 -26.7734375 7.6953125 C-26.01592697 7.37941666 -25.25841644 7.06352081 -24.47795105 6.73805237 C-23.75481216 6.43535934 -23.03167328 6.13266632 -22.28662109 5.82080078 C-21.58462585 5.52715637 -20.88263062 5.23351196 -20.15936279 4.93096924 C-18.63848124 4.27526935 -17.12817474 3.59476523 -15.62628174 2.89666748 C-14.84420349 2.53357483 -14.06212524 2.17048218 -13.25634766 1.79638672 C-12.55675934 1.46355682 -11.85717102 1.13072693 -11.13638306 0.78781128 C-7.55913585 -0.53133216 -3.72856111 -0.83106483 0 0 Z M-11 403 C-11.32871094 403.66644531 -11.65742188 404.33289063 -11.99609375 405.01953125 C-17.28041007 415.25878915 -23.9292627 423.8592068 -33 431 C-30.14959264 433.93948259 -27.22717719 436.70133367 -24.125 439.375 C-18.26246205 444.47430187 -13.16968718 449.42472406 -9 456 C-8.67 456 -8.34 456 -8 456 C-7.70996094 454.64068359 -7.70996094 454.64068359 -7.4140625 453.25390625 C-7.15367187 452.03574219 -6.89328125 450.81757813 -6.625 449.5625 C-6.35816406 448.27988281 -6.09132812 446.99726563 -5.81640625 445.67578125 C-5.34955489 443.57383326 -4.84126776 441.47799994 -4.21484375 439.41796875 C-2.53403651 433.83205248 -3.55627903 430.84469725 -5.97265625 425.61328125 C-8.17499703 420.01112923 -8.09720565 413.88767341 -7.875 407.9375 C-7.91625 406.968125 -7.9575 405.99875 -8 405 C-8.99 404.34 -9.98 403.68 -11 403 Z " fill="#070808" transform="translate(176,0)"/>
<path d="M0 0 C4.24568905 3.41833731 8.14546192 7.15101601 12 11 C12.72960937 11.71800781 13.45921875 12.43601562 14.2109375 13.17578125 C30.31458654 30.07506513 38.71990846 53.6469346 38.33178711 76.76098633 C37.40836346 105.2162171 26.06900047 128.65559984 5.75 148.25 C-0.55979481 153.82228633 -7.65809621 157.94929446 -15 162 C-15.70253906 162.433125 -16.40507812 162.86625 -17.12890625 163.3125 C-21.42084668 164.8894969 -25.76645713 162.40775437 -29.8215332 160.87939453 C-50.5373926 153.11123746 -72.70334615 152.34913918 -93.6328125 159.95703125 C-97.23511047 161.16425297 -99.14174535 161.32962839 -102.74609375 159.9453125 C-126.25861989 147.16477163 -140.67653376 125.89580591 -148.65234375 100.8828125 C-155.64289807 76.99938146 -150.95388931 50.32636115 -139.3125 28.8125 C-127.23062003 8.13743769 -107.16477304 -8.41947624 -84 -15 C-83.02933594 -15.29648437 -82.05867188 -15.59296875 -81.05859375 -15.8984375 C-53.63352604 -23.09297993 -22.80397316 -16.49165142 0 0 Z " fill="#FBF285" transform="translate(316,66)"/>
<path d="M0 0 C1.5703125 1.63671875 1.5703125 1.63671875 3.125 3.6875 C9.06296755 10.78254474 18.24499347 16.11161469 27.51538086 17.33081055 C30.17867056 17.51325463 32.83141332 17.61962171 35.5 17.6875 C36.4178125 17.72166016 37.335625 17.75582031 38.28125 17.79101562 C40.5207109 17.87266264 42.7598215 17.94207538 45 18 C45.70180531 19.4096347 46.38593958 20.82807641 47.0625 22.25 C47.44535156 23.03890625 47.82820312 23.8278125 48.22265625 24.640625 C49.10013875 27.30393872 49.04171012 28.42880302 48 31 C46.06640625 33.05078125 46.06640625 33.05078125 43.5625 35.3125 C33.40253391 45.19669558 24.23127427 59.16924737 20.15625 72.828125 C19 75 19 75 16.53125 75.8203125 C15.5309375 75.92085938 14.530625 76.02140625 13.5 76.125 C-1.58980001 78.10576134 -13.73578813 84.28955105 -23.71875 96.01953125 C-32.68854709 108.35300225 -34.76881613 122.1654484 -33 137 C-30.50602603 150.70010852 -23.11766137 161.75484444 -12 170 C0.1101197 177.81927202 11.74227645 180.37341754 26 179 C27.84580738 178.50249723 29.68276528 177.96844071 31.5 177.375 C33.80078125 176.80859375 33.80078125 176.80859375 36 177 C39.62645461 179.84463189 42.22901005 183.34375996 45 187 C50.72950678 193.60578429 57.76776519 198.20388639 65 203 C62.14909446 205.89029629 59.28300023 208.68621243 56.1875 211.3125 C54.78892217 212.538543 53.39310286 213.76773955 52 215 C51.35933594 215.56074219 50.71867188 216.12148437 50.05859375 216.69921875 C40.62955845 225.48060314 33.70601175 237.08635972 29 249 C28.071875 248.195625 27.14375 247.39125 26.1875 246.5625 C25.53910156 246.01335937 24.89070312 245.46421875 24.22265625 244.8984375 C22.69181146 243.59089696 21.17964922 242.26126928 19.68359375 240.9140625 C10.61476303 233.02210294 0.07186652 227.11413785 -11.25 223.0625 C-14.72971366 221.56067141 -15.84108155 219.96713884 -17.44140625 216.56640625 C-17.86599121 215.66752686 -18.29057617 214.76864746 -18.72802734 213.8425293 C-20.79697232 209.21897337 -22.76794017 204.56239718 -24.6875 199.875 C-25.11248779 198.84745605 -25.53747559 197.81991211 -25.9753418 196.76123047 C-27.77319465 192.41402558 -29.56248229 188.06331018 -31.35253906 183.71289062 C-32.669542 180.51568641 -33.9909299 177.32031849 -35.3125 174.125 C-35.90647583 172.67456299 -35.90647583 172.67456299 -36.51245117 171.19482422 C-40.17162161 160.92332933 -40.17162161 160.92332933 -46 152 C-50.64721816 151.61936035 -50.64721816 151.61936035 -55 153 C-56.88815691 156.77631381 -55.55901827 161.30661794 -54.28112793 165.1776123 C-53.35661664 167.51253484 -52.37260392 169.81157159 -51.359375 172.109375 C-50.99531555 172.95743713 -50.6312561 173.80549927 -50.25616455 174.67926025 C-49.09701134 177.37375755 -47.92392484 180.06191027 -46.75 182.75 C-45.97690693 184.53864888 -45.20476314 186.32770838 -44.43359375 188.1171875 C-42.95476633 191.54591852 -41.47379856 194.97370646 -39.99023438 198.40039062 C-39.65113037 199.18422119 -39.31202637 199.96805176 -38.96264648 200.77563477 C-38.35286477 202.18464345 -37.74243135 203.59337043 -37.13110352 205.00170898 C-36.39958782 206.69146745 -35.67598826 208.38464704 -34.953125 210.078125 C-34.56801758 210.9743457 -34.18291016 211.87056641 -33.78613281 212.79394531 C-33 215 -33 215 -33 218 C-38.7344 219.18714576 -44.36853394 220.0253412 -50 218 C-55.34660221 213.73447781 -58.74090989 207.43027005 -62.29394531 201.68554688 C-64.99387926 197.43550775 -68.0326843 193.45536274 -71.0625 189.4375 C-72.23292218 187.85467584 -73.40090189 186.27004261 -74.56640625 184.68359375 C-75.13762207 183.90612793 -75.70883789 183.12866211 -76.29736328 182.32763672 C-79.58513968 177.83299086 -82.83719614 173.31258825 -86.08813477 168.79125977 C-88.94954305 164.81778531 -91.83341468 160.86288547 -94.75 156.9296875 C-95.68875977 155.66318359 -95.68875977 155.66318359 -96.64648438 154.37109375 C-97.84302928 152.7597298 -99.04207088 151.15021541 -100.24414062 149.54296875 C-103.74275429 144.83155716 -106.9742683 140.0286568 -110 135 C-106.18703478 132.12900254 -102.37064212 129.26284625 -98.546875 126.40625 C-95.58588072 124.19375042 -92.63952957 121.96375737 -89.703125 119.71875 C-88.36481188 118.70803064 -87.02627923 117.69760188 -85.6875 116.6875 C-85.06029053 116.20176514 -84.43308105 115.71603027 -83.78686523 115.21557617 C-82.2480569 114.0636392 -80.62896135 113.02047773 -79 112 C-78.01 112.33 -77.02 112.66 -76 113 C-74.68800225 115.63860573 -73.53308371 118.21149924 -72.4375 120.9375 C-71.83629039 122.40669801 -71.23099073 123.87423075 -70.62109375 125.33984375 C-70.22555298 126.32005493 -70.22555298 126.32005493 -69.82202148 127.32006836 C-69.01322038 129.20301786 -69.01322038 129.20301786 -67 131 C-63.42157414 131.4667512 -61.62756672 131.40228636 -58.5625 129.4375 C-56.75835192 126.623029 -56.9112812 125.32520852 -57.46511841 122.11013794 C-58.56032877 117.78947149 -60.41024107 113.76136592 -62.18359375 109.68359375 C-62.59916031 108.7089064 -63.01472687 107.73421906 -63.44288635 106.72999573 C-64.76658134 103.62907037 -66.10150564 100.53314367 -67.4375 97.4375 C-68.76782089 94.33743097 -70.09575533 91.23636323 -71.42140198 88.1342926 C-72.24515364 86.20856059 -73.07195101 84.28412775 -73.90220642 82.3611908 C-75.79470227 77.95448339 -77.58227635 73.5887605 -79 69 C-78.33613281 68.443125 -77.67226562 67.88625 -76.98828125 67.3125 C-67.35220428 58.98467874 -60.85968595 50.04057324 -59.83251953 36.84912109 C-59.67046857 32.2241263 -59.78642987 27.62142037 -60 23 C-54.09642422 19.96641378 -48.11694658 17.28638848 -41.98828125 14.7421875 C-41.05702927 14.35306183 -40.12577728 13.96393616 -39.16630554 13.5630188 C-36.21612103 12.33106206 -33.26432605 11.10301754 -30.3125 9.875 C-28.3195579 9.04321683 -26.32671837 8.21118786 -24.33398438 7.37890625 C-14.68844396 3.35355694 -14.68844396 3.35355694 -11.05291748 1.8506012 C-9.37572099 1.15567539 -7.70294353 0.45009243 -6.03149414 -0.25854492 C-3.51557412 -1.17680584 -2.43157053 -1.10480072 0 0 Z " fill="#91EEBA" transform="translate(137,32)"/>
<path d="M0 0 C4.95809286 0.69312685 9.26026702 2.66990445 13.81640625 4.640625 C14.66871323 5.00468445 15.5210202 5.3687439 16.39915466 5.74383545 C19.12221497 6.9080745 21.84241008 8.07884013 24.5625 9.25 C27.25199372 10.40274374 29.94205845 11.55414709 32.63217163 12.70544434 C34.36794187 13.44873684 36.10331985 14.19294606 37.83828735 14.93811035 C43.53653438 17.38381477 49.25226641 19.77864166 54.99584961 22.11621094 C57 23 57 23 58 24 C58.09541802 25.82354432 58.1844067 27.64767806 58.23901367 29.47290039 C58.60887306 40.93362641 60.073768 51.54814271 67.828125 60.51171875 C69 62 69 62 69 64 C69.5775 64.268125 70.155 64.53625 70.75 64.8125 C73.0325868 66.01719859 74.9737942 67.40798115 77 69 C76.3901548 74.44290922 74.5303796 78.94366226 72.37890625 83.91796875 C72.00781235 84.79072952 71.63671844 85.6634903 71.25437927 86.56269836 C70.02956915 89.44015079 68.79590949 92.31372451 67.5625 95.1875 C66.25684903 98.25011972 64.95355859 101.3137378 63.65023804 104.37734985 C62.7558543 106.47906058 61.8606833 108.58043646 60.9647522 110.68148804 C56.96566493 120.06209778 53.0226574 129.46555161 49.09515381 138.87631226 C42.41065926 154.89052531 35.68628471 170.88778334 28.9375 186.875 C28.55166748 187.78950928 28.16583496 188.70401855 27.76831055 189.64624023 C27.39295166 190.53577393 27.01759277 191.42530762 26.63085938 192.34179688 C26.07590286 193.65770561 26.07590286 193.65770561 25.50973511 195.00019836 C24.77753649 196.73053137 24.0418543 198.45939484 23.30252075 200.18669128 C21.36179549 204.72643344 19.48844253 209.28124975 17.69677734 213.88208008 C17.31131241 214.84514069 16.92584747 215.80820129 16.52870178 216.80044556 C15.79222847 218.64217874 15.07551565 220.49198277 14.38230896 222.35043335 C12.7084922 226.47297507 11.57549216 229.22360422 7.34472656 231.02026367 C3.57129685 231.98309819 -0.14406154 232.47436851 -4 233 C-8.50665984 234.67141195 -12.73820634 236.7838673 -17 239 C-18.546875 239.804375 -18.546875 239.804375 -20.125 240.625 C-27.28730828 244.57157803 -33.15496572 249.29721212 -39 255 C-41.3529995 252.6470005 -41.99525997 250.7256379 -43.1875 247.625 C-49.21684719 232.9872785 -58.25219442 220.16377062 -70.6796875 210.27490234 C-71.33324219 209.64382568 -71.33324219 209.64382568 -72 209 C-72 208.34 -72 207.68 -72 207 C-70.32906561 205.97785332 -68.60943641 205.03523947 -66.875 204.125 C-61.7306134 201.20619909 -57.23588386 197.9765471 -52.75 194.125 C-51.85498779 193.35724243 -51.85498779 193.35724243 -50.94189453 192.57397461 C-47.47624903 189.51874719 -44.58585241 186.35238184 -41.75 182.6875 C-38.68266063 179.10464141 -38.68266063 179.10464141 -35.859375 178.671875 C-33.5 178.9375 -33.5 178.9375 -30.9609375 179.44921875 C-16.16953423 182.20065392 -1.50746724 179.27561742 11 171 C22.77014184 162.41250451 29.37104149 150.16224216 32 136 C33.62082732 122.50140169 30.8693549 108.76490803 22.34375 97.88671875 C21.29793469 96.69537725 20.23116574 95.52182606 19.13671875 94.375 C18 93 18 93 18 91 C17.4225 90.72800781 16.845 90.45601563 16.25 90.17578125 C14.00343412 89.00179457 12.05751337 87.66438933 10 86.1875 C2.47137328 81.15611385 -4.66002645 78.01364488 -13.75 77.6875 C-19.12497946 77.02685217 -19.12497946 77.02685217 -21.23535156 74.55029297 C-23.67579337 70.60565934 -25.40277115 66.33824748 -27.14111328 62.04931641 C-31.78030202 50.9801435 -39.62000546 40.9959146 -48.3359375 32.8046875 C-50 31 -50 31 -49.9375 28.125 C-48.95422627 24.8474209 -47.56106178 22.03751317 -46 19 C-44.77925781 18.98582031 -43.55851562 18.97164062 -42.30078125 18.95703125 C-27.14532669 18.59732656 -15.2388024 15.92833825 -4 5 C-2.63866597 3.35612494 -1.29750882 1.6947054 0 0 Z " fill="#78E6A9" transform="translate(383,31)"/>
<path d="M0 0 C1.59775269 0.00737183 1.59775269 0.00737183 3.2277832 0.01489258 C10.60744738 0.12515497 17.21771641 0.75280072 24.1875 3.3125 C25.24710937 3.66441406 26.30671875 4.01632813 27.3984375 4.37890625 C47.4877541 11.47338519 63.76798389 26.36798419 73 45.5625 C78.66313706 58.13995094 80.39245756 69.85640755 80.76635742 83.50317383 C81.13391814 94.05318496 84.35815197 101.18162022 89.859375 110.05859375 C94.27873892 117.55851428 94.14452074 126.65883967 92.72265625 135.05859375 C89.96203157 145.52936545 83.64050817 152.21097258 75.578125 159.05078125 C71.0909746 163.29597746 70.83466415 167.06354859 70.5625 173.0625 C70.50449219 174.10857422 70.50449219 174.10857422 70.4453125 175.17578125 C70.35151376 176.88760818 70.26843826 178.60001682 70.1875 180.3125 C67.78211318 177.91972885 65.38768855 175.52255186 63.046875 173.06640625 C58.1704002 168.00029076 53.21007772 163.94313196 47.1875 160.3125 C48.30333936 156.96498191 49.07160709 156.38327967 51.75 154.25 C66.10107324 141.94908008 74.39914314 123.78883694 76.42578125 105.1171875 C76.55449008 101.7707579 76.41283857 99.67304172 74.625 96.8125 C71.32028796 94.77883105 69.00296222 94.9656398 65.1875 95.3125 C64.1975 95.6425 63.2075 95.9725 62.1875 96.3125 C57.65300909 96.54345879 53.11581281 96.54092265 48.57617188 96.55273438 C46.35506929 96.56231635 44.13494301 96.59328729 41.9140625 96.625 C23.85728703 96.76183878 8.7139345 92.57585754 -4.6015625 79.734375 C-11.31699029 72.37825269 -14.8429331 64.36360507 -17.77246094 54.97460938 C-19.18436157 50.3817134 -19.18436157 50.3817134 -22.8125 47.3125 C-26.33061407 46.90947098 -26.33061407 46.90947098 -29.8125 48.3125 C-31.70801454 51.05121496 -32.64890253 54.20815785 -33.8125 57.3125 C-40.60444375 72.93397062 -49.58778275 83.83470157 -65.7265625 90.51953125 C-67.42390639 91.17254396 -69.13133788 91.80051558 -70.8515625 92.390625 C-73.15600352 93.26767895 -73.15600352 93.26767895 -74.8125 96.3125 C-76.04370584 115.70399202 -67.90207449 135.36891206 -55.1875 149.8125 C-52.906579 152.28281155 -50.69699847 154.40229837 -48.0390625 156.46875 C-47.30429688 157.0771875 -46.56953125 157.685625 -45.8125 158.3125 C-45.8125 158.9725 -45.8125 159.6325 -45.8125 160.3125 C-47.43328303 161.58171613 -49.1118213 162.77752621 -50.8125 163.9375 C-58.08030003 169.10072473 -64.20574005 174.63456675 -68.8125 182.3125 C-72.08998709 179.03501291 -71.17290291 174.15124671 -71.203125 169.69726562 C-71.36160726 164.63023553 -72.04893382 162.00933629 -75.8125 158.3125 C-77.07506391 157.17517016 -78.3665502 156.06896138 -79.6875 155 C-87.8965899 147.95271798 -93.01520374 139.70371633 -94.05078125 128.8046875 C-94.38009736 117.19196143 -89.80984926 108.76880622 -83.6171875 99.2578125 C-79.89494486 93.1829836 -79.56274196 88.54269395 -79.4375 81.5625 C-78.57450791 57.51725289 -70.2101442 36.91612827 -52.5625 20.0625 C-37.37399526 6.88361636 -20.01168073 -0.10885345 0 0 Z " fill="#CE9C72" transform="translate(252.8125,234.6875)"/>
<path d="M0 0 C6.28262424 1.95601161 12.54224845 1.90184706 19.05859375 1.90625 C19.99703125 1.91849609 20.93546875 1.93074219 21.90234375 1.94335938 C30.82462488 1.96184476 38.82611088 0.54089482 47.10546875 -2.79296875 C51.20493993 -3.70153949 54.3446252 -2.82740378 57.94921875 -0.78515625 C76.62255151 13.10802696 86.05134792 27.93735142 91.30859375 50.71875 C91.30859375 66.55875 91.30859375 82.39875 91.30859375 98.71875 C44.11859375 98.71875 -3.07140625 98.71875 -51.69140625 98.71875 C-51.69140625 42.41553185 -51.69140625 42.41553185 -44.12890625 27.59375 C-43.7944751 26.93197754 -43.46004395 26.27020508 -43.11547852 25.58837891 C-39.38979038 18.60176645 -34.37935987 13.15902996 -28.69140625 7.71875 C-28.03914063 7.09355469 -27.386875 6.46835937 -26.71484375 5.82421875 C-25.09230053 4.3609663 -23.44215782 3.02467192 -21.69140625 1.71875 C-21.04558594 1.22375 -20.39976562 0.72875 -19.734375 0.21875 C-12.75320882 -4.69342812 -7.5851621 -2.78354573 0 0 Z " fill="#FC6CC2" transform="translate(233.69140625,406.28125)"/>
<path d="M0 0 C1.37671875 0.41765625 1.37671875 0.41765625 2.78125 0.84375 C23.33611217 7.69537072 40.09171693 22.13257008 49.9765625 41.44018555 C55.7271908 53.42430741 58.38729346 65.64455905 58.62890625 78.890625 C59.0335892 82.28144216 59.54339792 83.66037897 62 86 C63.32143049 86.37777024 64.65497954 86.71749538 66 87 C66.17415915 91.24948329 66.28081127 95.49805155 66.375 99.75 C66.42527344 100.9565625 66.47554687 102.163125 66.52734375 103.40625 C66.67328506 112.16272866 66.67328506 112.16272866 64.67285156 114.65039062 C63.0390625 115.703125 63.0390625 115.703125 60 117 C58.67168977 119.65662045 58.86805026 121.6770512 58.8581543 124.65209961 C58.85111984 125.83770981 58.84408539 127.02332001 58.83683777 128.24485779 C58.83059135 130.17906334 58.83059135 130.17906334 58.82421875 132.15234375 C58.81378916 133.49077642 58.80236571 134.82920168 58.78999329 136.1676178 C58.73764596 141.85104793 58.6896778 147.53435223 58.67407227 153.21801758 C58.66389779 156.69600069 58.63432769 160.17338155 58.59275246 163.65112495 C58.57468303 165.60221207 58.57707272 167.55345483 58.58000183 169.50462341 C58.47256308 177.41372286 57.24887508 183.77170096 54 191 C51.45205187 188.54689412 49.79586054 186.11995257 48 183.0625 C41.14511262 172.1609249 32.1584129 163.78091201 22 156 C24.99476159 152.42089468 27.9365346 149.02890275 31.375 145.875 C44.04719732 133.28672452 50.90820328 114.00780305 51.1875 96.4375 C51.16378137 93.54857119 50.92945189 91.78835567 50 89 C48.03737945 88.18482699 48.03737945 88.18482699 45.625 87.6875 C31.31571808 83.77192286 21.91171684 75.23250685 14 63 C12.06436713 59.08197984 10.48413932 55.10671484 9 51 C7.58467292 47.1360973 7.58467292 47.1360973 5 44 C1.54213985 43.49992206 1.54213985 43.49992206 -2 44 C-4.7449185 46.85817971 -5.7172736 49.80672364 -6.8125 53.5625 C-11.19762136 67.19956301 -18.38581796 77.93205355 -31 85 C-42.68087145 90.93914731 -53.49859975 93.20013697 -66.5 93.0625 C-67.32242187 93.05798828 -68.14484375 93.05347656 -68.9921875 93.04882812 C-70.99482396 93.03718489 -72.99742227 93.01925556 -75 93 C-75.03440186 92.42668945 -75.06880371 91.85337891 -75.10424805 91.26269531 C-76.05426942 76.57492309 -77.95897502 65.0284289 -86.765625 52.83984375 C-91.25332776 46.15089439 -90.06419311 34.64255814 -89 27 C-87.18158358 22.73139106 -84.73061464 20.66941341 -81 18 C-79.92289178 17.15827736 -78.84747403 16.31438861 -77.7734375 15.46875 C-55.73960863 -1.41806083 -26.94249708 -8.40142382 0 0 Z " fill="#7873E2" transform="translate(436,276)"/>
<path d="M0 0 C2.24927993 1.90649583 4.32198694 3.91183069 6.40625 5.99609375 C7.18484375 6.6509375 7.9634375 7.30578125 8.765625 7.98046875 C12.8771792 11.97860077 14.58549687 15.27443423 14.8203125 20.98828125 C14.66101219 34.06129603 11.52635748 43.11815177 4.40625 53.99609375 C3.57414757 53.78537735 3.57414757 53.78537735 2.72523499 53.57040405 C-7.17893443 51.40407422 -17.13889644 51.66781344 -27.22265625 51.66015625 C-29.22322176 51.65371776 -31.22378636 51.64698864 -33.22434998 51.63998413 C-37.40080956 51.6280625 -41.57718673 51.62429832 -45.75366211 51.62548828 C-51.08519023 51.62569188 -56.41618778 51.59832468 -61.74759007 51.56394386 C-65.87333066 51.54163527 -69.99894397 51.53765186 -74.12473869 51.53870773 C-76.08979061 51.53636026 -78.05484648 51.52758527 -80.01983833 51.512043 C-94.33248853 51.17955876 -94.33248853 51.17955876 -107.59375 55.99609375 C-108.686875 56.63546875 -109.78 57.27484375 -110.90625 57.93359375 C-117.70448812 63.15084626 -122.86073205 69.7970399 -125.59375 77.99609375 C-126.25375 77.99609375 -126.91375 77.99609375 -127.59375 77.99609375 C-132.19759373 56.39920081 -127.96022903 34.64839023 -116.59375 15.99609375 C-104.45376591 -1.56860394 -86.18597414 -13.79224953 -65.28125 -18.31640625 C-40.75861909 -22.06987016 -19.28190748 -14.89701587 0 0 Z " fill="#7873E2" transform="translate(146.59375,283.00390625)"/>
<path d="M0 0 C0.88334015 -0.00335861 1.7666803 -0.00671722 2.67678833 -0.01017761 C5.59500536 -0.01967254 8.51316497 -0.02162975 11.43139648 -0.02270508 C13.45873539 -0.02591779 15.48607406 -0.02928187 17.51341248 -0.03279114 C21.76106301 -0.03877812 26.0086932 -0.04063139 30.25634766 -0.04003906 C35.70630689 -0.03993726 41.15613637 -0.0536098 46.6060648 -0.07081127 C50.79156599 -0.08191192 54.97703556 -0.0839589 59.16254997 -0.08342934 C61.17244859 -0.0846116 63.18234797 -0.08904708 65.19223213 -0.0967617 C67.99804 -0.10652602 70.80356284 -0.10369808 73.609375 -0.09765625 C74.4432222 -0.10327576 75.2770694 -0.10889526 76.13618469 -0.11468506 C80.0265762 -0.09332703 81.92758255 -0.06300812 85.23999023 2.14526367 C85.52436801 5.12973355 85.65135732 7.96999587 85.67749023 10.95776367 C85.9701119 20.57169894 87.10086519 29.77037951 92.67749023 37.89526367 C94.35732625 41.38932259 94.44184849 41.88212043 93.42749023 45.39526367 C86.70077022 61.6722652 74.53781245 72.72633024 58.58764648 79.75463867 C43.86378353 85.36742521 26.74029707 85.34511357 12.23999023 79.14526367 C11.3750293 78.79463867 10.51006836 78.44401367 9.61889648 78.08276367 C-4.05317415 71.93993006 -14.72098652 60.73164494 -20.63500977 47.02026367 C-21.36428811 45.06963335 -22.07409231 43.11156039 -22.76000977 41.14526367 C-23.0784082 40.33702148 -23.39680664 39.5287793 -23.72485352 38.69604492 C-26.5696083 30.76481616 -27.40754756 21.5150165 -24.91625977 13.39526367 C-22.18913828 7.9410207 -18.07093048 4.10164101 -12.76000977 1.14526367 C-8.54113009 -0.11271297 -4.36622222 -0.00237876 0 0 Z " fill="#FDE0C5" transform="translate(59.760009765625,348.854736328125)"/>
<path d="M0 0 C16.24916919 6.58350254 35.70031571 5.90104537 51.88671875 -0.20703125 C56.27948453 -1.43291938 59.65609567 -0.9741644 63.703125 1.171875 C79.69758785 11.38051477 90.8652171 26.47861534 96.51171875 44.60546875 C97.57421875 50.04296875 97.57421875 50.04296875 97.57421875 63.04296875 C50.38421875 63.04296875 3.19421875 63.04296875 -45.42578125 63.04296875 C-43.90813813 38.76067886 -36.48143238 22.95372323 -18.86328125 6.73046875 C-17.3973384 5.48556061 -15.91866618 4.25543702 -14.42578125 3.04296875 C-13.42224609 2.19605469 -13.42224609 2.19605469 -12.3984375 1.33203125 C-7.69842006 -2.1860016 -5.33257676 -2.21813465 0 0 Z " fill="#95E0FE" transform="translate(69.42578125,441.95703125)"/>
<path d="M0 0 C0.66902344 0.28617187 1.33804688 0.57234375 2.02734375 0.8671875 C2.81882812 1.16496094 3.6103125 1.46273438 4.42578125 1.76953125 C5.26367188 2.09050781 6.1015625 2.41148437 6.96484375 2.7421875 C24.23225576 8.87021227 42.02330593 6.42039523 58.96484375 0.7421875 C61.01611328 0.07983398 61.01611328 0.07983398 62.96484375 -0.2578125 C81.49444371 9.27169605 93.488663 25.60596806 100.0625 44.9765625 C102.02934807 52.03891929 101.96484375 56.92492531 101.96484375 64.7421875 C54.77484375 64.7421875 7.58484375 64.7421875 -41.03515625 64.7421875 C-39.74865342 44.15814227 -34.70576785 27.6551065 -20.03515625 12.7421875 C-15.91512655 9.12419948 -11.53635969 5.86737538 -7.03515625 2.7421875 C-6.16503906 2.13117188 -5.29492188 1.52015625 -4.3984375 0.890625 C-2.03515625 -0.2578125 -2.03515625 -0.2578125 0 0 Z " fill="#FCF385" transform="translate(381.03515625,440.2578125)"/>
<path d="M0 0 C4.95809286 0.69312685 9.26026702 2.66990445 13.81640625 4.640625 C14.66871323 5.00468445 15.5210202 5.3687439 16.39915466 5.74383545 C19.12221497 6.9080745 21.84241008 8.07884013 24.5625 9.25 C27.25199372 10.40274374 29.94205845 11.55414709 32.63217163 12.70544434 C34.36794187 13.44873684 36.10331985 14.19294606 37.83828735 14.93811035 C43.53653438 17.38381477 49.25226641 19.77864166 54.99584961 22.11621094 C57 23 57 23 58 24 C58.21512355 26.65020258 58.37799061 29.28266595 58.5 31.9375 C58.57069408 33.40505667 58.64363478 34.87250673 58.71875 36.33984375 C58.7695295 37.41517113 58.7695295 37.41517113 58.82133484 38.51222229 C58.96448681 40.98121853 58.96448681 40.98121853 59.36116028 43.33030701 C60.33169278 49.80237088 59.44908258 53.99977656 56.73046875 59.8828125 C56.2022049 61.09763809 56.2022049 61.09763809 55.66326904 62.33700562 C54.52505611 64.9425304 53.35671225 67.53325965 52.1875 70.125 C51.40010376 71.91369346 50.61503801 73.70341457 49.83227539 75.49414062 C48.28334493 79.03307132 46.72473208 82.56745933 45.15820312 86.09863281 C42.3165195 92.52437977 39.61501953 99.00433863 36.9375 105.5 C36.15512982 107.38549216 35.37260076 109.2709184 34.58984375 111.15625 C34.05965154 112.43739893 33.52959339 113.71860342 33 115 C32.34 115 31.68 115 31 115 C30.72027344 114.23816406 30.44054687 113.47632813 30.15234375 112.69140625 C27.65609683 106.26216578 24.94686696 101.08579904 20.453125 95.83984375 C19 94 19 94 18 91 C16.15344766 89.93572702 16.15344766 89.93572702 14 89 C12.65686626 88.07659555 11.32412525 87.13796112 10 86.1875 C2.47137328 81.15611385 -4.66002645 78.01364488 -13.75 77.6875 C-19.12497946 77.02685217 -19.12497946 77.02685217 -21.23535156 74.55029297 C-23.67579337 70.60565934 -25.40277115 66.33824748 -27.14111328 62.04931641 C-31.78030202 50.9801435 -39.62000546 40.9959146 -48.3359375 32.8046875 C-50 31 -50 31 -49.9375 28.125 C-48.95422627 24.8474209 -47.56106178 22.03751317 -46 19 C-44.77925781 18.98582031 -43.55851562 18.97164062 -42.30078125 18.95703125 C-27.14532669 18.59732656 -15.2388024 15.92833825 -4 5 C-2.63866597 3.35612494 -1.29750882 1.6947054 0 0 Z " fill="#91EEBB" transform="translate(383,31)"/>
<path d="M0 0 C0.66 0 1.32 0 2 0 C3.26171875 1.90625 3.26171875 1.90625 4.6875 4.5 C14.12898814 20.55956475 29.50737493 29.7289394 47.296875 34.421875 C53.0466438 35.65159434 58.5892552 36.12203629 64.46484375 36.09765625 C65.14301651 36.0962413 65.82118927 36.09482635 66.51991272 36.09336853 C68.65915578 36.08782745 70.79828925 36.07528653 72.9375 36.0625 C74.39908702 36.05747736 75.86067569 36.0529158 77.32226562 36.04882812 C80.88154526 36.03787745 84.44076191 36.02065445 88 36 C85.452963 49.31962724 79.70616215 59.58130258 70 69 C69.36320312 69.64582031 68.72640625 70.29164063 68.0703125 70.95703125 C56.2174488 82.24430187 40.49960635 86.44122879 24.578125 86.1875 C20.14762696 85.95533416 16.22062207 85.3384315 12 84 C11.12988281 83.731875 10.25976562 83.46375 9.36328125 83.1875 C-7.39109115 77.57934187 -19.76941921 66.6585674 -28.1875 51.1875 C-31.39811194 44.37711103 -34.3947141 36.5982464 -34 29 C-33.11699219 28.59910156 -32.23398438 28.19820313 -31.32421875 27.78515625 C-18.06234336 21.58315908 -6.74060446 13.48120892 0 0 Z " fill="#FCDFC4" transform="translate(226,309)"/>
<path d="M0 0 C0.66 0 1.32 0 2 0 C3.26921613 1.62078303 4.46502621 3.2993213 5.625 5 C13.98427741 16.65820652 23.28786204 22.76979377 36 29 C34.03254587 45.56185268 26.8568978 61.29315888 13.61328125 71.9140625 C-2.49801903 83.51025106 -19.50883062 87.20016825 -39.19140625 84.57421875 C-56.46000564 80.37931308 -69.96189486 69.97968011 -79.24658203 55.07446289 C-81.99980506 50.36816005 -83.56228595 46.42765427 -84 41 C-83.01953125 38.7578125 -83.01953125 38.7578125 -82 37 C-81.4330542 36.98541748 -80.8661084 36.97083496 -80.28198242 36.95581055 C-56.04702209 36.26575181 -32.26488431 34.71584771 -13.375 17.625 C-12.59125 16.75875 -11.8075 15.8925 -11 15 C-10.43410156 14.3915625 -9.86820312 13.783125 -9.28515625 13.15625 C-5.51538841 9.01189635 -2.58778201 4.96854145 0 0 Z " fill="#FCDFC4" transform="translate(437,347)"/>
<path d="M0 0 C11.08658997 -0.31609074 21.29602487 -0.3377987 32 3 C32.9178125 3.2784375 33.835625 3.556875 34.78125 3.84375 C55.33611217 10.69537072 72.09171693 25.13257008 81.9765625 44.44018555 C87.7271908 56.42430741 90.38729346 68.64455905 90.62890625 81.890625 C91.0335892 85.28144216 91.54339792 86.66037897 94 89 C95.32143049 89.37777024 96.65497954 89.71749538 98 90 C98.17415915 94.24948329 98.28081127 98.49805155 98.375 102.75 C98.42527344 103.9565625 98.47554688 105.163125 98.52734375 106.40625 C98.67328506 115.16272866 98.67328506 115.16272866 96.67285156 117.65039062 C95.0390625 118.703125 95.0390625 118.703125 92 120 C90.67168977 122.65662045 90.86805026 124.6770512 90.8581543 127.65209961 C90.85111984 128.83770981 90.84408539 130.02332001 90.83683777 131.24485779 C90.83059135 133.17906334 90.83059135 133.17906334 90.82421875 135.15234375 C90.81378916 136.49077642 90.80236571 137.82920168 90.78999329 139.1676178 C90.73764596 144.85104793 90.6896778 150.53435223 90.67407227 156.21801758 C90.66389779 159.69600069 90.63432769 163.17338155 90.59275246 166.65112495 C90.57468303 168.60221207 90.57707272 170.55345483 90.58000183 172.50462341 C90.47256308 180.41372286 89.24887508 186.77170096 86 194 C83.45205187 191.54689412 81.79586054 189.11995257 80 186.0625 C73.14511262 175.1609249 64.1584129 166.78091201 54 159 C56.99476159 155.42089468 59.9365346 152.02890275 63.375 148.875 C76.04719732 136.28672452 82.90820328 117.00780305 83.1875 99.4375 C83.16378137 96.54857119 82.92945189 94.78835567 82 92 C79.80491727 91.04289573 79.80491727 91.04289573 77.1875 90.4375 C73.89034032 89.57546564 71.00002757 88.6293856 68 87 C67.97421875 85.97003906 67.9484375 84.94007813 67.921875 83.87890625 C67.39417737 69.03653104 64.94952603 55.26354968 58 42 C57.59394531 41.13503906 57.18789063 40.27007812 56.76953125 39.37890625 C50.0730933 25.84856682 39.4113564 15.33739972 27 7 C26.19304687 6.443125 25.38609375 5.88625 24.5546875 5.3125 C16.99684561 0.80341467 8.56161598 1.10925496 0 1 C0 0.67 0 0.34 0 0 Z " fill="#6A63E5" transform="translate(404,273)"/>
<path d="M0 0 C22.06363926 1.91290665 40.74339363 12.34277051 56 28 C57.12148438 29.10794922 57.12148438 29.10794922 58.265625 30.23828125 C74.36552453 47.06711323 82.71868261 70.71993838 82.33178711 93.76098633 C81.40836346 122.2162171 70.06900047 145.65559984 49.75 165.25 C43.44020519 170.82228633 36.34190379 174.94929446 29 179 C27.86691406 179.62648437 27.86691406 179.62648437 26.7109375 180.265625 C23.39215442 181.6901255 20.39947287 180.15091197 17.1875 178.9375 C16.465625 178.628125 15.74375 178.31875 15 178 C15.72832031 177.42378906 16.45664062 176.84757813 17.20703125 176.25390625 C34.5231883 162.2798886 46.81439082 147.10240165 54 126 C54.29519531 125.25878906 54.59039062 124.51757812 54.89453125 123.75390625 C63.41712548 101.54478139 59.97292161 73.34824935 51 52 C46.56328662 42.52070626 41.05271205 33.75174192 34 26 C33.11699219 25.02417969 32.23398437 24.04835938 31.32421875 23.04296875 C22.32766501 13.43249686 11.96468903 6.50375695 0 1 C0 0.67 0 0.34 0 0 Z " fill="#FAED55" transform="translate(272,49)"/>
<path d="M0 0 C20.19191648 0.64101322 38.43816575 11.54958155 52 26 C66.58033529 42.55925756 71.98531341 61.52723617 72.57885742 83.19067383 C72.94641814 93.74068496 76.17065197 100.86912022 81.671875 109.74609375 C86.09123892 117.24601428 85.95702074 126.34633967 84.53515625 134.74609375 C81.77453157 145.21686545 75.45300817 151.89847258 67.390625 158.73828125 C62.9034746 162.98347746 62.64716415 166.75104859 62.375 172.75 C62.33632813 173.44738281 62.29765625 174.14476562 62.2578125 174.86328125 C62.16401376 176.57510818 62.08093826 178.28751682 62 180 C59.59461318 177.60722885 57.20018855 175.21005186 54.859375 172.75390625 C49.9829002 167.68779076 45.02257772 163.63063196 39 160 C40.11583936 156.65248191 40.88410709 156.07077967 43.5625 153.9375 C57.91357324 141.63658008 66.21164314 123.47633694 68.23828125 104.8046875 C68.36699008 101.4582579 68.22533857 99.36054172 66.4375 96.5 C61.42870933 93.41766728 55.54410308 95.09484031 50 96 C50.33 95.34 50.66 94.68 51 94 C50.67 93.01 50.34 92.02 50 91 C49.88800728 89.64603229 49.82247295 88.28786815 49.7890625 86.9296875 C48.90330709 59.4327587 42.85210466 37.18915228 23 17 C22.31292969 16.30003906 21.62585938 15.60007813 20.91796875 14.87890625 C14.6944162 8.95556217 7.52182634 5.02305363 0 1 C0 0.67 0 0.34 0 0 Z " fill="#C48D5D" transform="translate(261,235)"/>
<path d="M0 0 C1.485 0.495 1.485 0.495 3 1 C4.31199775 3.63860573 5.46691629 6.21149924 6.5625 8.9375 C7.16370961 10.40669801 7.76900927 11.87423075 8.37890625 13.33984375 C8.77444702 14.32005493 8.77444702 14.32005493 9.17797852 15.32006836 C9.98677962 17.20301786 9.98677962 17.20301786 12 19 C15.58343976 19.16677282 15.58343976 19.16677282 19 19 C19.98397585 21.5607445 20.96229967 24.12341492 21.9375 26.6875 C22.35418945 27.7693457 22.35418945 27.7693457 22.77929688 28.87304688 C25.62235527 36.37461059 25.62235527 36.37461059 26 40 C25.505 40.433125 25.01 40.86625 24.5 41.3125 C22.58896043 43.06523176 22.58896043 43.06523176 23.17871094 46.53613281 C23.89849327 51.4038688 25.66551251 55.6302093 27.640625 60.109375 C28.18671417 61.3814682 28.18671417 61.3814682 28.74383545 62.67926025 C29.90298866 65.37375755 31.07607516 68.06191027 32.25 70.75 C33.02309307 72.53864888 33.79523686 74.32770838 34.56640625 76.1171875 C36.04523367 79.54591852 37.52620144 82.97370646 39.00976562 86.40039062 C39.34886963 87.18422119 39.68797363 87.96805176 40.03735352 88.77563477 C40.64713523 90.18464345 41.25756865 91.59337043 41.86889648 93.00170898 C42.60041218 94.69146745 43.32401174 96.38464704 44.046875 98.078125 C44.43198242 98.9743457 44.81708984 99.87056641 45.21386719 100.79394531 C46 103 46 103 46 106 C40.2656 107.18714576 34.63146606 108.0253412 29 106 C23.65339779 101.73447781 20.25909011 95.43027005 16.70605469 89.68554688 C14.00612074 85.43550775 10.9673157 81.45536274 7.9375 77.4375 C6.76707782 75.85467584 5.59909811 74.27004261 4.43359375 72.68359375 C3.86237793 71.90612793 3.29116211 71.12866211 2.70263672 70.32763672 C-0.58513968 65.83299086 -3.83719614 61.31258825 -7.08813477 56.79125977 C-9.94954305 52.81778531 -12.83341468 48.86288547 -15.75 44.9296875 C-16.37583984 44.08535156 -17.00167969 43.24101562 -17.64648438 42.37109375 C-18.84302928 40.7597298 -20.04207088 39.15021541 -21.24414062 37.54296875 C-24.74275429 32.83155716 -27.9742683 28.0286568 -31 23 C-27.18703478 20.12900254 -23.37064212 17.26284625 -19.546875 14.40625 C-16.58588072 12.19375042 -13.63952957 9.96375737 -10.703125 7.71875 C-9.36481188 6.70803064 -8.02627923 5.69760188 -6.6875 4.6875 C-5.74668579 3.95889771 -5.74668579 3.95889771 -4.78686523 3.21557617 C-3.2480569 2.0636392 -1.62896135 1.02047773 0 0 Z " fill="#64DB9A" transform="translate(58,144)"/>
<path d="M0 0 C3.51980035 1.28157426 6.32900174 2.7745844 9.328125 5.01171875 C10.12863281 5.60533203 10.92914063 6.19894531 11.75390625 6.81054688 C12.57761719 7.42994141 13.40132813 8.04933594 14.25 8.6875 C15.05824219 9.28755859 15.86648438 9.88761719 16.69921875 10.50585938 C22.19110749 14.59621811 27.61015495 18.77633614 33 23 C31.41768176 27.19360445 29.49544893 30.17181926 26.6875 33.6875 C22.57592227 38.90953701 18.62306921 44.22381294 14.75 49.625 C10.20943092 55.94900409 5.62852675 62.24006517 1 68.5 C-2.99380938 73.90410264 -6.97086761 79.318675 -10.89428711 84.77416992 C-11.95912575 86.25024319 -13.03020506 87.72183574 -14.10766602 89.1887207 C-17.02713094 93.17622873 -19.79150037 97.20930453 -22.43359375 101.38671875 C-30.76143999 114.182967 -30.76143999 114.182967 -34.97998047 115.72265625 C-39.21113071 116.23912506 -43.01721772 115.37399936 -47 114 C-44.90793861 105.91381666 -41.72919072 98.37468561 -38.39221191 90.74606323 C-36.7111574 86.90125019 -35.04982754 83.04791401 -33.38671875 79.1953125 C-32.85723129 77.97028267 -32.85723129 77.97028267 -32.31704712 76.72050476 C-28.04839603 66.8262895 -23.90012434 56.88186293 -19.75 46.9375 C-18.23723412 43.31499766 -16.7241321 39.69263578 -15.2109375 36.0703125 C-14.66901009 34.77275024 -14.66901009 34.77275024 -14.11613464 33.44897461 C-9.45024891 22.28262044 -4.73232174 11.1383473 0 0 Z " fill="#64DB9A" transform="translate(458,144)"/>
<path d="M0 0 C-0.60646286 5.38008502 -2.42269928 9.79707322 -4.5703125 14.703125 C-4.9296286 15.53978699 -5.2889447 16.37644897 -5.65914917 17.23846436 C-6.80820127 19.91171351 -7.96597825 22.58106002 -9.125 25.25 C-10.63175629 28.73259708 -12.13326077 32.2174207 -13.6328125 35.703125 C-14.00346832 36.55871002 -14.37412415 37.41429504 -14.75601196 38.29580688 C-16.58538878 42.55167499 -18.33102975 46.81633672 -19.92724609 51.16552734 C-20.23089081 51.98647888 -20.53453552 52.80743042 -20.84738159 53.65325928 C-21.41024271 55.19437078 -21.95893691 56.74076438 -22.49026489 58.29302979 C-24.62606064 64.14065072 -27.58416944 66.72379461 -33.19921875 69.54296875 C-37.76709345 71.91928292 -41.29089717 75.47406274 -45 79 C-47.3529995 76.6470005 -47.99525997 74.7256379 -49.1875 71.625 C-55.21684719 56.9872785 -64.25219442 44.16377062 -76.6796875 34.27490234 C-77.11539062 33.85418457 -77.55109375 33.4334668 -78 33 C-78 32.34 -78 31.68 -78 31 C-76.32906561 29.97785332 -74.60943641 29.03523947 -72.875 28.125 C-67.7306134 25.20619909 -63.23588386 21.9765471 -58.75 18.125 C-58.1533252 17.61316162 -57.55665039 17.10132324 -56.94189453 16.57397461 C-53.47624903 13.51874719 -50.58585241 10.35238184 -47.75 6.6875 C-44.68266063 3.10464141 -44.68266063 3.10464141 -41.859375 2.671875 C-39.5 2.9375 -39.5 2.9375 -36.9609375 3.44921875 C-33.34129985 4.12252866 -29.79430434 4.23703426 -26.125 4.25 C-25.10092041 4.25362549 -25.10092041 4.25362549 -24.05615234 4.25732422 C-15.67814881 4.14789886 -7.99692671 0 0 0 Z " fill="#91EEBA" transform="translate(389,207)"/>
<path d="M0 0 C2.15103217 2.20605858 2.94263279 3.49516854 3.29296875 6.578125 C3.25816406 7.45984375 3.22335937 8.3415625 3.1875 9.25 C3.14689453 10.58804688 3.14689453 10.58804688 3.10546875 11.953125 C3.07066406 12.62859375 3.03585937 13.3040625 3 14 C4.485 14.061875 4.485 14.061875 6 14.125 C10.9280718 14.80750282 14.42133964 17.69282422 18 21 C20.16551116 24.24826674 20.55156953 25.23094157 20 29 C18.4375 31.3125 18.4375 31.3125 16 33 C12.625 33.5 12.625 33.5 9 33 C8.113125 32.34 7.22625 31.68 6.3125 31 C1.50362377 28.09652756 -3.50513308 27.95918955 -9 29 C-12.08283215 31.42858085 -12.90554407 32.68885104 -14.0625 36.5 C-14.39468076 40.02580146 -14.39468076 40.02580146 -12.14453125 41.9453125 C-7.06821398 45.26226018 -1.46419104 47.26159175 4.1640625 49.46875 C13.06586513 53.10577222 19.08299875 57.38302208 23.1171875 66.29296875 C25.52675139 73.68158724 24.49005908 80.65746609 21.32421875 87.64453125 C17.31249946 94.78042131 12.54320711 98.93157677 5 102 C4.34 102 3.68 102 3 102 C3.04640625 102.74765625 3.0928125 103.4953125 3.140625 104.265625 C3.43341214 112.25453113 3.43341214 112.25453113 1.4375 115.6875 C-1.99714704 117.53692533 -4.16016401 117.6171165 -8 117 C-10.4375 115.0625 -10.4375 115.0625 -12 112 C-12.30936646 108.96719442 -12.23810226 106.03580379 -12 103 C-12.99 102.9175 -13.98 102.835 -15 102.75 C-20.53170826 101.95334425 -25.02086321 99.43487417 -29.5 96.1875 C-31.72110177 92.94839325 -31.61517242 90.82773953 -31 87 C-28.875 84.5 -28.875 84.5 -26 83 C-22.13203736 83 -19.58534754 84.19898069 -16.3125 86.0625 C-11.35305509 88.67574597 -6.48984387 88.74861507 -1 88 C1.97984167 86.66829691 1.97984167 86.66829691 4 85 C4.66 85 5.32 85 6 85 C8.2349582 80.6697685 9.16719511 75.76672687 8 71 C4.13652113 65.96506469 -0.5702685 64.22980138 -6.3125 62.0625 C-15.03691364 58.76416209 -23.37514808 54.76747535 -28.15625 46.3359375 C-30.33080332 40.31564637 -29.79070746 33.55991249 -27.75 27.5625 C-24.50282755 20.95218465 -20.50943555 17.31107652 -14 14 C-13.34 14 -12.68 14 -12 14 C-12.04640625 13.40832031 -12.0928125 12.81664063 -12.140625 12.20703125 C-12.33369653 7.98014382 -12.4219755 5.6751608 -10.125 2 C-6.5500868 -1.36462419 -4.7084553 -1.24918202 0 0 Z " fill="#0B0A08" transform="translate(263,84)"/>
<path d="M0 0 C11.01171068 1.48624808 20.18001676 5.9612489 27.25 14.75 C33.98585211 24.55931468 35.50517007 34.31527488 34 46 C31.54164892 56.31798312 25.50242977 64.09074824 16.9375 70.17578125 C7.307449 75.73758154 -1.15563335 75.77459762 -12 75 C-11.39642089 71.29229976 -10.32966051 68.30825051 -8.6875 64.9375 C-1.29460759 48.99791116 0.31236502 34.06182046 0.125 16.75 C0.114943 15.11849512 0.10582199 13.48698419 0.09765625 11.85546875 C0.07587452 7.9034933 0.04149726 3.95181558 0 0 Z " fill="#09A575" transform="translate(367,122)"/>
<path d="M0 0 C-0.06928711 0.58628174 -0.13857422 1.17256348 -0.20996094 1.77661133 C-3.03400394 27.43168527 0.05780708 50.03424439 12 73 C12 73.66 12 74.32 12 75 C-1.80098726 75.54121519 -11.90283013 75.16173635 -22.96484375 65.97265625 C-30.76552101 58.41153914 -35.11567511 48.31234037 -35.5 37.5 C-35.10608404 26.43096162 -30.80492529 17.87718577 -23.1171875 10.09375 C-16.27936442 3.76541177 -9.43637291 0 0 0 Z " fill="#09A575" transform="translate(152,122)"/>
<path d="M0 0 C16.66203456 12.39675326 29.57410366 28.24253944 33.0914917 49.24536133 C34.15120963 58.17992557 33.65172381 67.3383151 33.546875 76.31640625 C33.53180041 78.56965251 33.51811692 80.82290853 33.50585938 83.07617188 C33.47564779 88.55252543 33.41688683 94.02750216 33.359375 99.50390625 C26.099375 99.50390625 18.839375 99.50390625 11.359375 99.50390625 C11.33359375 96.06855469 11.3078125 92.63320313 11.28125 89.09375 C11.24269229 85.7176134 11.19757645 82.3416225 11.15185547 78.96557617 C11.12385975 76.64305737 11.10254037 74.32044709 11.08837891 71.99780273 C10.98260117 55.61988359 10.40579915 40.8826633 2.546875 26.12890625 C2.20575684 25.46536133 1.86463867 24.80181641 1.51318359 24.11816406 C-0.94586044 19.46837669 -3.75776376 15.29793094 -7.1953125 11.30078125 C-8.640625 9.50390625 -8.640625 9.50390625 -9.71484375 7.3359375 C-10.92708363 4.93703241 -12.23595949 4.59693603 -14.640625 3.50390625 C-15.66243525 2.52620292 -16.66592954 1.52858609 -17.640625 0.50390625 C-16.27232804 -0.03429055 -14.89550035 -0.55081784 -13.515625 -1.05859375 C-12.74992187 -1.34863281 -11.98421875 -1.63867188 -11.1953125 -1.9375 C-6.90507154 -2.87558021 -3.79474936 -2.14998373 0 0 Z " fill="#F558B6" transform="translate(291.640625,405.49609375)"/>
<path d="M0 0 C3.46056242 2.15867881 6.725051 4.5708646 10 7 C10.62261719 7.45246094 11.24523437 7.90492188 11.88671875 8.37109375 C24.55726244 18.32441128 33.94346645 36.09614054 36 52 C36 55.63 36 59.26 36 63 C28.74 63 21.48 63 14 63 C13.773125 60.31875 13.54625 57.6375 13.3125 54.875 C11.16535025 33.99888296 0.91727837 16.42003576 -14 2 C-12.6153832 1.26998417 -11.21662355 0.56675418 -9.8125 -0.125 C-9.03519531 -0.51945312 -8.25789063 -0.91390625 -7.45703125 -1.3203125 C-4.20725604 -2.21929642 -2.95028066 -1.55568622 0 0 Z " fill="#FAED55" transform="translate(447,442)"/>
<path d="M0 0 C16.51878641 10.47812101 28.77537641 26.9206022 33.45703125 46.046875 C34.24822882 51.33617728 34.05106018 56.53041569 33.87890625 61.8671875 C26.61890625 61.8671875 19.35890625 61.8671875 11.87890625 61.8671875 C11.81703125 59.8871875 11.75515625 57.9071875 11.69140625 55.8671875 C10.22596635 35.71738891 0.51493548 16.69669324 -14.12109375 2.8671875 C-15.11109375 2.2071875 -16.10109375 1.5471875 -17.12109375 0.8671875 C-10.91180324 -1.85618553 -6.40217043 -3.41920704 0 0 Z " fill="#6FD4FC" transform="translate(133.12109375,443.1328125)"/>
<path d="M0 0 C18.60665695 0.07736656 36.18491294 11.18491294 49 24 C49.77859375 24.65484375 50.5571875 25.3096875 51.359375 25.984375 C55.4709292 29.98250702 57.17924687 33.27834048 57.4140625 38.9921875 C57.26936831 50.86654782 55.17100624 60.35623299 48 70 C47.67 70 47.34 70 47 70 C46.79697266 68.45505859 46.79697266 68.45505859 46.58984375 66.87890625 C43.36559792 44.69314946 33.5304522 25.39983309 16 11 C12.40140755 8.3792553 8.6538708 6.02738182 4.8359375 3.7421875 C2 2 2 2 0 0 Z " fill="#6962E4" transform="translate(104,265)"/>
<path d="M0 0 C1.83203125 0.1953125 1.83203125 0.1953125 4 1 C5.38671875 3.1171875 5.38671875 3.1171875 6.6875 5.875 C11.42806095 15.08078628 17.8825741 22.609686 26 29 C22.85720003 32.24755997 19.58118624 35.2641836 16.1875 38.25 C12.04119561 41.95073138 8.30938865 45.84000237 4.69140625 50.0546875 C3.18966231 51.78186644 1.64003457 53.405104 0 55 C-0.26554687 53.83082031 -0.53109375 52.66164063 -0.8046875 51.45703125 C-1.16124851 49.90880583 -1.51803102 48.36063141 -1.875 46.8125 C-2.04902344 46.04357422 -2.22304688 45.27464844 -2.40234375 44.48242188 C-3.15004237 41.25624081 -3.90275803 38.24012813 -5.1484375 35.1640625 C-6.72923635 31.14680303 -5.46679323 27.23161598 -3.984375 23.3203125 C-2.57537473 18.56773221 -2.57593933 13.94134076 -2.43359375 9.01367188 C-2.27865127 5.19737116 -2.16489618 3.24734427 0 0 Z " fill="#7671DD" transform="translate(339,402)"/>
<path d="M0 0 C2.8125 1.9375 2.8125 1.9375 5 4 C8.68754586 5.84377293 12.96664217 5.35879563 17 5 C20.401685 3.66362375 22.43478846 2.56521154 25 0 C28.89201406 -0.43244601 31.13230302 -0.57846465 34.4375 1.625 C36.49791771 4.75683492 36.6767545 6.31544773 36 10 C33.75 12.6875 33.75 12.6875 31 15 C30.4225 15.53625 29.845 16.0725 29.25 16.625 C22.05711005 21.02065497 14.29998001 21.99732737 6 21 C-0.06474609 19.25109648 -5.09042937 15.88674342 -10 12 C-11.42041821 9.15916359 -11.31452272 7.14522722 -11 4 C-8.05127687 -0.48205916 -5.14006617 -0.7214128 0 0 Z " fill="#0B0A0A" transform="translate(241,363)"/>
<path d="M0 0 C2.5625 1.875 2.5625 1.875 5 4 C8.68314655 6.54010107 12.67566384 6.65567552 17 6 C20.84793583 4.5688379 24.08917422 2.91082578 27 0 C30.67704228 0.13371063 33.11002981 0.22486467 35.9375 2.6875 C37.43335363 5.94318143 37.76708834 7.44349953 37 11 C32.60503117 16.21625088 26.85898315 20.23153899 20.00708008 21.31518555 C17.89011106 21.47316081 15.81018734 21.51848111 13.6875 21.5 C12.57036621 21.49359497 12.57036621 21.49359497 11.43066406 21.48706055 C3.40149348 21.24018362 -1.81367036 18.42161053 -8.125 13.625 C-10 11 -10 11 -10.625 7.4375 C-10 4 -10 4 -7.8125 1.5625 C-4.72914483 -0.15047509 -3.44308183 -0.68861637 0 0 Z " fill="#0A0A09" transform="translate(398,400)"/>
<path d="M0 0 C2.140625 1.3125 2.140625 1.3125 4.25 3 C8.19972201 5.75760028 10.96200938 6.86117073 15.78515625 6.5390625 C20.03045463 5.50581528 23.90955994 3.09044006 27 0 C33.0495283 0.44811321 33.0495283 0.44811321 35.9375 2.125 C37.78805954 5.39069331 37.67532292 7.31642045 37 11 C32.94720135 16.11050579 27.44035261 19.87343677 21 21 C10.45170821 21.98820839 1.7815451 21.5100054 -6.75 14.578125 C-9.46289095 11.83574611 -9.99725162 10.16215469 -10.0625 6.3125 C-9 3 -9 3 -7.25 1.0625 C-4.5402937 -0.21708353 -2.97636707 -0.28789265 0 0 Z " fill="#0A0A09" transform="translate(82,400)"/>
<path d="M0 0 C1.1734316 2.60130627 2.33892508 5.20568508 3.5 7.8125 C3.83386719 8.55048828 4.16773438 9.28847656 4.51171875 10.04882812 C4.82753906 10.76103516 5.14335937 11.47324219 5.46875 12.20703125 C5.90864258 13.18893433 5.90864258 13.18893433 6.35742188 14.19067383 C7 16 7 16 7 19 C-0.12073752 19.45211032 -4.75685965 18.420257 -11 15 C-11.61488281 14.66484375 -12.22976562 14.3296875 -12.86328125 13.984375 C-16.81172414 11.60965517 -16.81172414 11.60965517 -17.65625 8.875 C-17.7696875 8.25625 -17.883125 7.6375 -18 7 C-15.37690901 5.82887054 -12.75171858 4.66294036 -10.125 3.5 C-9.37863281 3.16613281 -8.63226563 2.83226562 -7.86328125 2.48828125 C-7.14785156 2.17246094 -6.43242187 1.85664063 -5.6953125 1.53125 C-5.03547363 1.23798828 -4.37563477 0.94472656 -3.69580078 0.64257812 C-2 0 -2 0 0 0 Z " fill="#09A172" transform="translate(168,17)"/>
<path d="M0 0 C6.45353615 2.05764921 12.7361263 4.42383482 19 7 C18.33392561 11.40958108 16.73375271 15.26572186 14.9375 19.3125 C14.65583984 19.95767578 14.37417969 20.60285156 14.08398438 21.26757812 C13.3937257 22.84698358 12.69746802 24.42376493 12 26 C6.80651471 23.87539238 4.65973952 19.74059456 2 15 C0.00233451 9.82423033 -0.19162916 5.46143115 0 0 Z " fill="#09A172" transform="translate(455,61)"/>
<path d="M0 0 C6.45353615 2.05764921 12.7361263 4.42383482 19 7 C16.87539238 12.19348529 12.74059456 14.34026048 8 17 C2.82423033 18.99766549 -1.53856885 19.19162916 -7 19 C-4.94235079 12.54646385 -2.57616518 6.2638737 0 0 Z " fill="#09A272" transform="translate(350,17)"/>
<path d="M0 0 C0.69837954 8.1632808 -0.26116511 14.19175142 -5 21 C-6.90795805 22.98391891 -8.72863299 24.41532534 -11 26 C-11.98838433 23.9627797 -12.96532252 21.92000393 -13.9375 19.875 C-14.48277344 18.73804687 -15.02804688 17.60109375 -15.58984375 16.4296875 C-16.9103119 13.21813339 -17.58784221 10.43290921 -18 7 C-15.37690901 5.82887054 -12.75171858 4.66294036 -10.125 3.5 C-9.37863281 3.16613281 -8.63226563 2.83226562 -7.86328125 2.48828125 C-7.14785156 2.17246094 -6.43242188 1.85664062 -5.6953125 1.53125 C-5.03547363 1.23798828 -4.37563477 0.94472656 -3.69580078 0.64257812 C-2 0 -2 0 0 0 Z " fill="#09A373" transform="translate(63,61)"/>
<path d="M0 0 C0.33 0 0.66 0 1 0 C1.17697038 11.19969696 -4.13523103 20.32161966 -11.625 28.375 C-13.7890625 30.5859375 -13.7890625 30.5859375 -16 32 C-18.73665484 31.78203634 -20.55672217 31.22163891 -23 30 C-21.88416064 26.65248191 -21.11589291 26.07077967 -18.4375 23.9375 C-11.11599784 17.70309029 -5.83333536 10.16803265 -1.12890625 1.8359375 C-0.75636719 1.23007812 -0.38382812 0.62421875 0 0 Z " fill="#CA996F" transform="translate(323,365)"/>
<path d="M0 0 C0 7.26 0 14.52 0 22 C-3.13782964 20.43108518 -5.50839252 18.97689907 -8.25 16.875 C-8.95640625 16.33617187 -9.6628125 15.79734375 -10.390625 15.2421875 C-10.92171875 14.83226562 -11.4528125 14.42234375 -12 14 C-11.51820435 9.70398876 -9.00445443 7.66910061 -6 4.75 C-5.0925 3.85796875 -4.185 2.9659375 -3.25 2.046875 C-1 0 -1 0 0 0 Z " fill="#7772E0" transform="translate(472,420)"/>
</svg>
